HIERARCHY
ROOT Hips
{
	OFFSET 0.000000 0.000000 0.000000 
	CHANNELS 6 Xposition Yposition Zposition Zrotation Yrotation Xrotation
	JOINT LeftUpLeg
	{
		OFFSET 1.363060 -1.794630 0.839290 
		CHANNELS 3 Zrotation Yrotation Xrotation
		JOINT LeftLeg
		{
			OFFSET 2.448110 -6.726130 0.000000 
			CHANNELS 3 Zrotation Yrotation Xrotation
			JOINT LeftFoot
			{
				OFFSET 2.562200 -7.039590 0.000000 
				CHANNELS 3 Zrotation Yrotation Xrotation
				JOINT LeftToeBase
				{
					OFFSET 0.157640 -0.433110 2.322550 
					CHANNELS 3 Zrotation Yrotation Xrotation
					End Site
					{
						OFFSET 0.000000 0.000000 0.000000 
					}
				}
			}
		}
	}
	JOINT RightUpLeg
	{
		OFFSET -1.305520 -1.794630 0.839290 
		CHANNELS 3 Zrotation Yrotation Xrotation
		JOINT RightLeg
		{
			OFFSET -2.542530 -6.985550 0.000000 
			CHANNELS 3 Zrotation Yrotation Xrotation
			JOINT RightFoot
			{
				OFFSET -2.568260 -7.056230 0.000000 
				CHANNELS 3 Zrotation Yrotation Xrotation
				JOINT RightToeBase
				{
					OFFSET -0.164730 -0.452590 2.363150 
					CHANNELS 3 Zrotation Yrotation Xrotation
					End Site
					{
						OFFSET 0.000000 0.000000 0.000000 
					}
				}
			}
		}
	}
	JOINT Spine
	{
		OFFSET 0.028270 2.035590 -0.193380 
		CHANNELS 3 Zrotation Yrotation Xrotation
		JOINT Spine1
		{
			OFFSET 0.056720 2.048850 -0.042750 
			CHANNELS 3 Zrotation Yrotation Xrotation
			JOINT Neck1
			{
				OFFSET -0.054170 1.746240 0.172020 
				CHANNELS 3 Zrotation Yrotation Xrotation
				JOINT Head
				{
					OFFSET 0.104070 1.761360 -0.123970 
					CHANNELS 3 Zrotation Yrotation Xrotation
					End Site
					{
						OFFSET 0.000000 0.000000 0.000000 
					}
				}
			}
			JOINT LeftArm
			{
				OFFSET 3.362410 1.200890 -0.311210 
				CHANNELS 3 Zrotation Yrotation Xrotation
				JOINT LeftForeArm
				{
					OFFSET 4.983000 -0.000000 -0.000000 
					CHANNELS 3 Zrotation Yrotation Xrotation
					JOINT LeftHand
					{
						OFFSET 3.483560 -0.000000 -0.000000 
						CHANNELS 3 Zrotation Yrotation Xrotation
						JOINT LeftHandIndex1
						{
							OFFSET 0.715260 -0.000000 -0.000000 
							CHANNELS 3 Zrotation Yrotation Xrotation
							End Site
							{
								OFFSET 0.000000 0.000000 0.000000 
							}
						}
					}
				}
			}
			JOINT RightArm
			{
				OFFSET -3.136600 1.374050 -0.404650 
				CHANNELS 3 Zrotation Yrotation Xrotation
				JOINT RightForeArm
				{
					OFFSET -5.241900 -0.000000 -0.000000 
					CHANNELS 3 Zrotation Yrotation Xrotation
					JOINT RightHand
					{
						OFFSET -3.444170 -0.000000 -0.000000 
						CHANNELS 3 Zrotation Yrotation Xrotation
						JOINT RightHandIndex1
						{
							OFFSET -0.622530 -0.000000 -0.000000 
							CHANNELS 3 Zrotation Yrotation Xrotation
							End Site
							{
								OFFSET 0.000000 0.000000 0.000000 
							}
						}
					}
				}
			}
		}
	}
}
MOTION
Frames: 15
Frame Time: 0.041667
1.233035 17.787373 -35.786320 -5.429432 0.985061 8.233940 -13.017395 -7.251302 -8.465540 1.155501 8.814230 25.241227 -0.051991 5.089036 -15.398968 0.332600 -3.706500 -10.252300 27.059684 5.821682 -6.345547 -1.775549 -7.907040 23.084929 -0.219486 -5.407704 -17.215754 -0.005900 -0.494400 1.358500 1.809095 -1.547598 -3.039152 4.803319 -1.032744 1.913867 5.110215 -2.260471 9.593109 0.248200 -0.864600 7.571900 -92.436601 7.107612 22.060378 16.211329 -26.584797 -3.446426 0.487214 0.060514 4.910304 -7.125000 0.000000 0.000000 85.776158 -2.916015 25.396780 -11.688267 21.346876 -2.196327 0.918232 0.503399 -11.713512 7.125000 0.000000 0.000000 
1.232021 17.788894 -35.791189 -5.544274 0.956480 8.253945 -12.879827 -7.308735 -8.547972 1.178122 8.855025 25.363621 0.001871 4.866901 -15.538079 0.215200 -2.986300 -8.240500 27.202749 5.941745 -6.369368 -1.752964 -7.867515 22.954149 -0.196062 -5.588805 -17.237090 -0.005300 -0.467900 1.285700 1.816462 -1.569004 -3.019341 4.751115 -1.047676 1.979348 5.157239 -2.302622 9.758587 0.263800 -0.872100 7.665300 -92.348337 6.911635 22.129542 16.149445 -26.497723 -3.417085 0.488293 0.061505 4.777040 -7.125000 0.000000 0.000000 85.797461 -2.857912 25.635904 -11.786554 21.528695 -2.241785 0.919344 0.502875 -11.701954 7.125000 0.000000 0.000000 
1.234151 17.785649 -35.790682 -5.534903 0.962783 8.269997 -12.903016 -7.316501 -8.579644 1.179065 8.867669 25.398081 -0.036408 5.066790 -15.540974 0.306000 -3.556600 -9.832600 27.186128 5.841691 -6.326131 -1.750382 -7.850916 22.912388 -0.202595 -5.483916 -17.141917 -0.002900 -0.345700 0.949800 1.826828 -1.571766 -3.043945 4.805146 -1.046277 1.896167 5.355878 -2.283797 9.723953 0.391500 -0.858500 7.649000 -92.411741 6.975354 22.153742 16.169937 -26.514965 -3.413710 0.486079 0.062681 4.995312 -7.125000 0.000000 0.000000 85.733907 -2.941365 25.717671 -11.878186 21.685266 -2.289932 0.903208 0.518421 -11.807271 7.125000 0.000000 0.000000 
1.237092 17.782403 -35.795956 -5.576957 0.921440 8.231530 -12.886420 -7.483916 -8.510720 1.185038 8.885720 25.453080 -0.047536 5.147311 -15.594765 0.243600 -3.176200 -8.769700 27.205221 5.829782 -6.307413 -1.743230 -7.829937 22.849018 -0.205365 -5.417250 -17.065787 -0.007500 -0.558500 1.534800 1.834181 -1.623216 -3.035652 4.747602 -1.070903 1.914795 5.102243 -2.276618 9.796699 0.254400 -0.866700 7.651000 -92.301501 7.150174 22.540526 16.303662 -26.702587 -3.474876 0.485216 0.068096 4.460247 -7.125000 0.000000 0.000000 85.701734 -2.867130 25.894070 -11.871571 21.674436 -2.283310 0.908969 0.516738 -11.826249 7.125000 0.000000 0.000000 
1.238918 17.792140 -35.792203 -5.628915 0.790927 8.307536 -12.857948 -7.357221 -8.580310 1.186329 8.895924 25.481973 -0.069321 5.285436 -15.658469 0.300500 -3.524600 -9.743000 27.239530 5.976853 -6.305507 -1.739714 -7.823629 22.822476 -0.221236 -5.330930 -17.113716 -0.007200 -0.548300 1.506700 1.827084 -1.519147 -3.001707 4.692124 -1.020364 2.063606 4.885833 -2.292526 9.530728 0.128400 -0.896300 7.540100 -92.343906 6.876877 22.303156 16.175795 -26.528604 -3.411022 0.486858 0.066939 5.026393 -7.125000 0.000000 0.000000 85.677415 -2.780547 26.127613 -11.972130 21.861268 -2.340953 0.889735 0.536521 -12.155456 7.125000 0.000000 0.000000 
1.240845 17.784432 -35.799404 -5.638904 0.809080 8.256943 -12.864676 -7.483757 -8.509450 1.184566 8.895334 25.479231 -0.096297 5.391594 -15.576080 0.282600 -3.418800 -9.446900 27.238437 5.898959 -6.323837 -1.740384 -7.822509 22.822695 -0.218793 -5.329765 -17.082463 -0.011600 -0.695800 1.912200 1.838016 -1.558721 -3.024938 4.724594 -1.038099 1.920488 5.013562 -2.247248 9.723765 0.209900 -0.861100 7.631600 -92.295892 7.057862 22.727470 16.311867 -26.709991 -3.473610 0.484400 0.070209 4.556007 -7.125000 0.000000 0.000000 85.667770 -2.720674 26.020154 -11.972392 21.851677 -2.341154 0.886383 0.534881 -12.026962 7.125000 0.000000 0.000000 
1.239425 17.783417 -35.801940 -5.680650 0.688209 8.281156 -12.802927 -7.306676 -8.593255 1.190870 8.894788 25.484037 -0.049810 5.166888 -15.616020 0.281100 -3.409800 -9.421900 27.296428 5.944771 -6.335290 -1.740145 -7.823374 22.821954 -0.203857 -5.356310 -16.949068 -0.002500 -0.323900 0.889800 1.868667 -1.578831 -3.036871 4.794735 -1.040196 1.889012 4.786127 -2.216882 9.394670 0.096000 -0.877700 7.412400 -92.384369 7.111430 22.508672 16.254199 -26.636477 -3.449255 0.484190 0.070019 4.669564 -7.125000 0.000000 0.000000 85.534664 -2.810915 26.392552 -12.031889 21.940618 -2.348966 0.905137 0.538474 -12.316458 7.125000 0.000000 0.000000 
1.242164 17.784533 -35.801332 -5.711060 0.520033 8.303044 -12.823996 -7.379738 -8.552708 1.181212 8.895676 25.480071 -0.102558 5.476996 -15.708433 0.277700 -3.389300 -9.364500 27.270965 5.954021 -6.394412 -1.743108 -7.820917 22.815772 -0.220677 -5.186084 -16.870845 -0.004000 -0.410000 1.126500 1.857644 -1.442413 -3.056305 4.805705 -0.974505 1.800676 4.901910 -2.229645 9.855761 0.186100 -0.864300 7.680500 -92.334019 7.133855 22.739691 16.254139 -26.628515 -3.452726 0.483651 0.069176 4.622993 -7.125000 0.000000 0.000000 85.568961 -2.774052 26.062571 -12.070230 22.003933 -2.373587 0.892563 0.539500 -12.142280 7.125000 0.000000 0.000000 
1.238614 17.784229 -35.805186 -5.729721 0.480704 8.304279 -12.776990 -7.185449 -8.616542 1.182084 8.889250 25.463822 -0.101867 5.438515 -15.624600 0.328000 -3.681000 -10.181000 27.319333 6.058601 -6.370977 -1.747202 -7.836383 22.859138 -0.217999 -5.229682 -16.911170 -0.005000 -0.457700 1.257800 1.880532 -1.527380 -3.046625 4.864100 -1.017365 1.864499 4.968888 -2.131502 9.753666 0.240900 -0.821400 7.594200 -92.425764 7.110644 22.349786 16.138327 -26.479962 -3.409798 0.486155 0.063909 4.719528 -7.125000 0.000000 0.000000 85.509175 -2.776082 26.314828 -12.090188 22.044795 -2.378337 0.904308 0.531610 -12.304230 7.125000 0.000000 0.000000 
1.247438 17.791633 -35.808026 -5.812836 -0.021525 8.486790 -12.819928 -7.190775 -8.654247 1.168055 8.884743 25.439971 -0.175650 5.833563 -15.665088 0.279300 -3.399000 -9.391700 27.240754 6.114307 -6.721637 -1.755597 -7.837781 22.848991 -0.226260 -4.883511 -16.442445 -0.001900 -0.284100 0.780500 1.859341 -1.321780 -3.063094 4.745678 -0.911526 1.875042 4.869041 -2.061824 9.839585 0.203400 -0.792100 7.621600 -92.349241 7.251777 22.509321 16.226377 -26.603469 -3.457321 0.486706 0.063936 4.535507 -7.125000 0.000000 0.000000 85.516632 -2.734860 26.312566 -12.066857 22.013743 -2.371438 0.904835 0.524659 -12.340441 7.125000 0.000000 0.000000 
1.240744 17.782403 -35.810257 -5.775584 0.266377 8.335246 -12.770671 -6.977628 -8.712168 1.178541 8.886252 25.453192 -0.119451 5.537521 -15.647011 0.350300 -3.802800 -10.522600 27.325577 6.132703 -6.424139 -1.747802 -7.833509 22.847967 -0.211596 -5.177780 -16.748997 -0.002900 -0.348600 0.957900 1.879138 -1.425911 -3.064352 4.868046 -0.964089 1.778885 4.964051 -2.086412 9.876565 0.262800 -0.800500 7.650700 -92.363631 7.134790 22.578912 16.078181 -26.391170 -3.385385 0.486179 0.063368 4.605541 -7.125000 0.000000 0.000000 85.496755 -2.748758 26.260765 -12.129143 22.106190 -2.395435 0.902202 0.531899 -12.334426 7.125000 0.000000 0.000000 
1.249466 17.790010 -35.811880 -5.811625 0.068277 8.442125 -12.812114 -7.209694 -8.646133 1.162407 8.875462 25.408255 -0.170544 5.815610 -15.686350 0.298000 -3.510200 -9.702500 27.248514 6.101503 -6.665001 -1.759050 -7.844851 22.874276 -0.244743 -4.814644 -16.556262 -0.002300 -0.307100 0.843700 1.851338 -1.313550 -3.035896 4.746096 -0.917122 1.931531 5.073685 -1.997001 10.254194 0.355600 -0.740200 7.889100 -92.268132 6.949853 22.724610 16.069787 -26.378705 -3.385653 0.487896 0.064125 4.468269 -7.125000 0.000000 0.000000 85.555611 -2.515912 26.157628 -12.083164 22.036171 -2.365283 0.919659 0.518557 -12.208102 7.125000 0.000000 0.000000 
1.247945 17.787474 -35.816545 -5.837565 0.037290 8.421373 -12.771500 -7.253859 -8.727795 1.161395 8.874690 25.402674 -0.193965 5.890964 -15.576076 0.338800 -3.740600 -10.348000 27.314181 6.202355 -6.617860 -1.761256 -7.858154 22.913862 -0.226043 -4.966277 -16.577389 -0.002900 -0.346400 0.951900 1.883377 -1.379642 -3.056464 4.821711 -0.941958 1.839709 5.006981 -1.917527 9.975012 0.345900 -0.724900 7.680600 -92.387919 7.112402 22.485432 16.082296 -26.395818 -3.386984 0.486701 0.063270 4.679141 -7.125000 0.000000 0.000000 85.458805 -2.594706 26.336129 -12.098260 22.056003 -2.375421 0.910469 0.529504 -12.224621 7.125000 0.000000 0.000000 
1.251900 17.789503 -35.820805 -5.881206 -0.193408 8.500653 -12.786491 -7.068313 -8.749812 1.154024 8.866855 25.374927 -0.247154 6.128099 -15.486996 0.429100 -4.204100 -11.651600 27.285660 6.270466 -6.823665 -1.765372 -7.864214 22.921087 -0.231655 -4.836878 -16.433242 -0.001300 -0.235100 0.645900 1.855121 -1.216257 -3.039918 4.752020 -0.868343 1.892631 5.133325 -1.914425 10.342529 0.409600 -0.697500 7.949300 -92.293344 6.825385 22.616064 15.956988 -26.216989 -3.332871 0.489082 0.058926 4.698450 -7.125000 0.000000 0.000000 85.523880 -2.403597 26.120094 -12.108943 22.086998 -2.393748 0.899618 0.522069 -12.294259 7.125000 0.000000 0.000000 
1.247235 17.785040 -35.820298 -5.852179 -0.118332 8.426314 -12.747666 -7.128089 -8.656144 1.156570 8.872575 25.393627 -0.192662 5.949494 -15.740207 0.305900 -3.555700 -9.829800 27.370754 6.399161 -6.601773 -1.762196 -7.868417 22.938529 -0.224824 -5.017167 -16.647348 -0.002800 -0.341300 0.937700 2.118336 -1.235606 -2.980230 5.989060 -0.883019 2.114374 4.831826 -1.863241 10.282032 0.373500 -0.742100 7.909500 -93.218110 6.707714 22.552229 15.907484 -26.209302 -3.321269 0.482284 0.064366 5.026065 -7.125000 0.000000 0.000000 84.585192 -2.229205 26.137699 -12.151963 22.121357 -2.395827 0.903350 0.535369 -12.492036 7.125000 0.000000 0.000000 
